<svg xmlns="http://www.w3.org/2000/svg" width="1200" height="900" viewBox="0 0 1200 900" role="img" aria-labelledby="title desc">
<title id="title">Maison Dine location map preview</title><desc id="desc">Elegant abstract map preview for the restaurant location section.</desc>
<defs><linearGradient id="bg" x1="0" y1="0" x2="1" y2="1"><stop stop-color="#120F0B"/><stop offset="1" stop-color="#342B22"/></linearGradient></defs>
<rect width="1200" height="900" rx="70" fill="url(#bg)"/>
<g fill="none" stroke="#FFF7EA" stroke-opacity=".14" stroke-width="28" stroke-linecap="round">
<path d="M90 210c180 25 280 120 440 110 170-10 260-120 580-80"/>
<path d="M160 670c210-130 320-142 500-80 150 52 250 12 390-88"/>
<path d="M300 80c-20 220 40 360 230 520 90 76 125 128 150 240"/>
<path d="M850 70c-86 152-98 304-32 455 42 96 34 188-22 310"/>
</g>
<circle cx="610" cy="430" r="82" fill="#D59A5B" opacity=".24"/>
<path d="M610 270c-83 0-150 67-150 150 0 112 150 260 150 260s150-148 150-260c0-83-67-150-150-150zm0 205a55 55 0 1 1 0-110 55 55 0 0 1 0 110z" fill="#F0C27B"/>
<text x="610" y="765" text-anchor="middle" fill="#FFF7EA" font-family="Inter, Arial, sans-serif" font-size="44" font-weight="700">Downtown, Main Street</text>
<text x="610" y="816" text-anchor="middle" fill="#B8AFA2" font-family="Inter, Arial, sans-serif" font-size="26">Maison Dine location preview</text>
</svg>
